<?xml version="1.0" standalone="no"?>
<!DOCTYPE svg PUBLIC "-//W3C//DTD SVG 20010904//EN"
 "http://www.w3.org/TR/2001/REC-SVG-20010904/DTD/svg10.dtd">
<svg version="1.0" xmlns="http://www.w3.org/2000/svg"
 width="505.000000pt" height="505.000000pt" viewBox="0 0 505.000000 505.000000"
 preserveAspectRatio="xMidYMid meet">
<metadata>
Created by potrace 1.11, written by Peter Selinger 2001-2013
</metadata>
<g transform="translate(0.000000,505.000000) scale(0.100000,-0.100000)"
fill="#000000" stroke="none">
<path d="M2096 4333 c-2 -3 -15 -6 -28 -7 -39 -5 -142 -27 -168 -36 -14 -5
-59 -18 -100 -31 -353 -104 -671 -316 -890 -594 -132 -167 -240 -348 -289
-482 -13 -35 -26 -63 -30 -63 -12 0 -95 -74 -193 -173 -178 -180 -251 -299
-251 -411 -1 -104 44 -156 135 -156 57 0 115 17 122 35 4 13 -7 15 -67 13 -45
-1 -83 4 -102 13 -26 12 -30 20 -33 60 -4 57 26 138 79 217 43 65 189 224 248
271 l38 31 -12 -63 c-29 -137 -40 -254 -40 -417 0 -139 6 -207 26 -314 5 -27
12 -74 15 -105 8 -81 19 -117 75 -248 58 -135 91 -195 168 -308 129 -188 264
-332 421 -448 52 -38 99 -73 104 -78 4 -4 1 -32 -8 -62 -31 -106 -19 -186 34
-231 49 -41 113 -19 234 80 l58 46 81 -26 c108 -35 260 -66 397 -82 155 -19
393 -5 550 30 245 56 547 205 749 369 247 201 405 416 526 717 34 84 88 252
99 305 11 55 17 59 221 140 144 58 205 75 266 75 65 0 157 -19 202 -41 50 -26
109 -87 131 -137 21 -46 53 -60 78 -34 21 22 7 65 -42 126 -83 102 -225 164
-370 160 -71 -1 -262 -59 -379 -115 -35 -16 -65 -28 -67 -26 -2 2 5 39 15 83
27 117 45 215 46 253 0 42 -26 64 -49 41 -16 -16 -110 -334 -121 -411 -6 -40
-14 -53 -62 -95 -118 -104 -214 -168 -358 -239 -126 -62 -336 -142 -419 -159
-11 -3 -52 -12 -91 -20 -126 -26 -138 -28 -310 -31 -146 -3 -181 -1 -245 16
-305 82 -399 283 -261 556 88 175 227 330 470 526 128 103 377 250 531 314
163 68 269 94 385 94 86 1 146 -14 182 -45 l27 -24 -27 -33 c-161 -199 -286
-437 -275 -526 3 -23 8 -28 39 -31 28 -2 48 5 97 38 98 66 220 207 254 295 31
79 39 199 17 259 -10 28 -10 39 -1 48 17 17 15 38 -4 38 -8 0 -22 -7 -31 -15
-13 -14 -17 -13 -39 4 -51 40 -255 57 -370 31 -27 -7 -60 -14 -73 -16 -72 -14
-231 -78 -376 -151 -146 -73 -179 -93 -317 -185 -254 -169 -464 -376 -565
-556 -156 -279 -68 -513 242 -637 239 -96 567 -83 900 35 225 80 339 141 583
314 30 20 56 35 59 32 11 -10 -68 -230 -119 -334 -87 -177 -197 -327 -354
-486 -182 -183 -377 -304 -622 -386 -178 -60 -304 -79 -512 -78 -244 1 -359
13 -506 54 -118 33 -122 36 -102 66 27 40 7 51 -32 18 l-34 -29 -101 53 c-132
70 -165 90 -165 98 0 11 69 205 115 321 143 367 324 749 522 1106 163 294 182
334 176 382 -8 58 -24 89 -69 128 -33 29 -40 32 -82 26 -130 -18 -347 -180
-643 -481 -130 -134 -276 -298 -322 -363 -9 -14 -19 -22 -23 -19 -3 4 19 48
49 100 206 351 331 614 358 750 32 160 -29 313 -139 349 -106 35 -332 -29
-544 -155 -27 -15 -48 -25 -48 -21 0 16 85 174 135 251 81 124 205 265 320
362 89 75 423 277 475 287 80 15 190 54 219 76 19 15 34 18 71 13 30 -4 75 0
126 12 82 19 264 23 452 10 179 -12 507 -126 668 -233 53 -35 84 -38 84 -9 0
17 -91 81 -160 113 -25 12 -93 44 -152 72 -166 79 -276 107 -543 140 -72 9
-331 12 -339 4z m-729 -989 c71 -52 86 -169 39 -309 -28 -81 -165 -371 -228
-480 -19 -33 -68 -118 -108 -190 -41 -71 -118 -204 -172 -294 -103 -170 -121
-214 -95 -224 34 -13 60 10 135 117 306 431 679 815 952 981 95 57 174 86 204
75 48 -17 36 -53 -144 -418 -95 -191 -188 -383 -207 -427 -90 -205 -236 -597
-337 -902 -43 -130 -49 -142 -66 -133 -38 21 -171 131 -235 197 -105 106 -272
329 -324 431 -45 88 -123 333 -146 457 -10 50 -19 99 -21 110 -2 11 -7 56 -11
100 -19 222 4 422 73 635 13 41 24 51 102 101 261 169 500 239 589 173z m2489
-248 c18 -98 -42 -247 -141 -351 -37 -39 -114 -97 -124 -93 -15 5 33 138 86
243 57 114 142 235 164 235 5 0 11 -15 15 -34z m-2373 -2146 c97 -50 104 -56
89 -70 -57 -51 -157 -110 -186 -110 -24 0 -32 28 -34 110 -2 81 5 133 18 128
4 -2 55 -28 113 -58z"/>
</g>
</svg>
